<?xml version="1.0" standalone="no"?>
<!DOCTYPE svg PUBLIC "-//W3C//DTD SVG 20010904//EN"
 "http://www.w3.org/TR/2001/REC-SVG-20010904/DTD/svg10.dtd">
<svg version="1.0" xmlns="http://www.w3.org/2000/svg"
 width="512.000000pt" height="512.000000pt" viewBox="0 0 512.000000 512.000000"
 preserveAspectRatio="xMidYMid meet">
<metadata>
Created by potrace 1.14, written by Peter Selinger 2001-2017
</metadata>
<g transform="translate(0.000000,512.000000) scale(0.100000,-0.100000)"
fill="#000000" stroke="none">
<path d="M3405 4624 c-572 -157 -1032 -275 -1110 -287 -55 -7 -83 -6 -130 6
-33 8 -61 14 -63 12 -8 -8 95 -60 142 -72 104 -27 82 -31 1066 227 585 154
617 162 665 152 28 -5 52 -8 53 -7 7 7 -75 56 -109 65 -68 20 -135 7 -514 -96z"/>
<path d="M1566 4617 l-29 -13 38 -28 37 -29 68 13 c66 12 123 10 165 -6 36
-13 -30 35 -77 56 -50 23 -156 26 -202 7z"/>
<path d="M868 4407 l-4 -32 -12 25 -13 26 -140 -36 c-76 -19 -139 -38 -139
-41 0 -4 18 -18 40 -33 l40 -26 137 36 c76 20 141 39 145 42 4 4 -6 21 -22 39
l-29 32 -3 -32z"/>
<path d="M4040 4295 c-58 -15 -144 -46 -320 -115 -58 -23 -121 -47 -140 -54
-19 -8 -60 -24 -90 -35 -170 -67 -312 -107 -1070 -305 -619 -161 -879 -226
-905 -226 -14 0 -44 -4 -67 -10 -24 -5 -97 -19 -163 -31 -250 -45 -367 -142
-410 -339 -26 -117 -29 -150 -85 -827 -36 -444 -41 -525 -37 -581 3 -35 11
-71 19 -80 8 -9 19 -30 26 -45 7 -15 16 -33 22 -40 21 -25 60 -88 60 -97 0 -6
4 -10 8 -10 5 0 19 -21 33 -46 13 -25 30 -55 37 -67 16 -27 10 -106 -9 -118
-8 -5 -10 -9 -6 -9 8 0 -5 -25 -62 -120 -11 -19 -24 -42 -28 -50 -4 -8 -17
-26 -30 -40 -13 -14 -23 -29 -23 -33 0 -15 -101 -105 -131 -117 -16 -7 -29
-16 -29 -21 0 -5 -7 -9 -15 -9 -31 0 -86 132 -122 290 -15 68 -17 210 -20
1518 l-4 1442 -39 25 c-22 14 -44 25 -50 25 -8 0 -10 -427 -7 -1432 4 -1549 2
-1485 57 -1703 29 -112 108 -269 165 -328 53 -56 133 -97 189 -97 21 0 145 32
275 71 267 81 273 81 436 34 113 -33 138 -45 149 -71 12 -27 122 -98 141 -90
10 3 15 -1 15 -12 0 -21 116 -96 136 -88 9 3 14 -1 14 -12 0 -10 25 -32 60
-54 l61 -37 1207 365 c664 201 1251 379 1305 395 l97 30 0 225 c0 177 -3 231
-15 253 -8 16 -41 46 -74 67 -34 21 -61 42 -61 45 0 3 26 13 58 23 78 25 126
53 145 85 l16 27 -132 -43 c-72 -24 -140 -43 -150 -43 -10 0 -80 41 -154 91
-75 50 -159 100 -188 110 -58 20 -191 39 -278 39 -51 0 -58 2 -53 17 4 9 14
63 23 120 15 93 20 105 42 116 28 14 30 20 71 222 l31 150 -21 17 -20 16 31
179 c49 286 34 379 -81 501 -27 30 -50 50 -50 46 0 -4 -6 0 -13 11 -9 11 -19
15 -27 10 -8 -5 -11 -4 -7 2 4 6 -83 70 -201 149 -244 163 -287 180 -435 169
-100 -7 -232 -42 -315 -84 -66 -33 -134 -101 -152 -153 -11 -29 -21 -38 -53
-48 -23 -7 -59 -31 -87 -59 -101 -101 -118 -249 -62 -534 32 -157 32 -157 12
-177 -11 -11 -20 -28 -20 -37 0 -10 17 -86 37 -171 35 -144 39 -154 69 -172
28 -18 33 -29 48 -102 17 -86 36 -117 89 -144 44 -23 36 -56 -22 -93 -37 -24
-55 -45 -75 -86 -14 -31 -32 -55 -41 -55 -8 0 -15 -4 -15 -9 0 -5 -8 -12 -17
-15 -22 -8 -56 -28 -77 -45 -9 -7 -16 -11 -16 -7 0 4 -10 0 -22 -8 -13 -8 -25
-15 -28 -15 -6 0 -31 -9 -130 -51 -41 -17 -76 -31 -77 -31 -8 0 -90 -36 -168
-74 -181 -88 -385 -246 -441 -341 -24 -41 -25 -51 -25 -179 l1 -135 -32 -20
c-72 -45 -161 -81 -332 -135 -98 -31 -180 -54 -183 -52 -2 3 10 26 26 53 17
27 41 76 53 109 l23 60 3 1156 2 1155 -41 23 c-22 13 -43 29 -45 36 -8 19 33
92 61 111 23 15 26 14 70 -16 42 -29 49 -31 78 -20 51 18 1314 348 2771 725
444 115 538 136 583 133 51 -4 52 -4 37 13 -30 33 -98 59 -153 59 -42 0 -166
-27 -303 -66 -15 -4 -18 1 -18 30 0 34 -2 36 -32 35 -18 0 -58 -7 -88 -14z
m-803 -646 c-92 -10 -233 -50 -297 -85 -25 -14 -36 -18 -25 -9 58 49 237 104
335 103 l65 -1 -78 -8z m146 4 c-13 -2 -33 -2 -45 0 -13 2 -3 4 22 4 25 0 35
-2 23 -4z m4 -104 c-92 -10 -233 -50 -297 -85 -25 -14 -36 -18 -25 -9 58 49
237 104 335 103 l65 -1 -78 -8z m146 4 c-13 -2 -33 -2 -45 0 -13 2 -3 4 22 4
25 0 35 -2 23 -4z m-643 -16 c0 -2 -15 -16 -32 -33 l-33 -29 29 33 c28 30 36
37 36 29z m647 -88 c-92 -10 -233 -50 -297 -85 -25 -14 -36 -18 -25 -9 58 49
237 104 335 103 l65 -1 -78 -8z m146 4 c-13 -2 -33 -2 -45 0 -13 2 -3 4 22 4
25 0 35 -2 23 -4z m54 -9 c-3 -3 -12 -4 -19 -1 -8 3 -5 6 6 6 11 1 17 -2 13
-5z m-697 -7 c0 -2 -15 -16 -32 -33 l-33 -29 29 33 c28 30 36 37 36 29z m-255
-57 c-3 -5 -14 -10 -23 -9 -14 0 -13 2 3 9 27 11 27 11 20 0z m-46 -14 c-2 -2
-15 -9 -29 -15 -24 -11 -24 -11 -6 3 16 13 49 24 35 12z m451 -29 c0 -2 -15
-16 -32 -33 l-33 -29 29 33 c28 30 36 37 36 29z m-255 -57 c-3 -5 -14 -10 -23
-9 -14 0 -13 2 3 9 27 11 27 11 20 0z m-46 -14 c-2 -2 -15 -9 -29 -15 -24 -11
-24 -11 -6 3 16 13 49 24 35 12z m196 -86 c-3 -5 -14 -10 -23 -9 -14 0 -13 2
3 9 27 11 27 11 20 0z m-46 -14 c-2 -2 -15 -9 -29 -15 -24 -11 -24 -11 -6 3
16 13 49 24 35 12z m-325 -991 c14 -11 26 -23 26 -27 0 -9 -97 59 -107 75 -7
12 36 -14 81 -48z"/>
</g>
</svg>
